<?xml version="1.0" encoding="UTF-8"?>
<svg width="803px" height="330px" viewBox="0 0 803 330" version="1.1" xmlns="http://www.w3.org/2000/svg" xmlns:xlink="http://www.w3.org/1999/xlink">
    <!-- Generator: Sketch 61.2 (89653) - https://sketch.com -->
    <title>rfcs-banner-blueprint</title>
    <desc>Created with Sketch.</desc>
    <defs>
        <polygon id="path-1" points="0.0111437107 0.169673629 145.899672 0.169673629 145.899672 204.885939 0.0111437107 204.885939"></polygon>
    </defs>
    <g id="rfcs-banner-blueprint" stroke="none" stroke-width="1" fill="none" fill-rule="evenodd">
        <rect id="Rectangle" fill="#FDB71A" transform="translate(273.000000, 165.500000) scale(-1, 1) rotate(23.000000) translate(-273.000000, -165.500000) " x="262" y="114" width="22" height="103"></rect>
        <rect id="Rectangle" fill="#FD5339" x="230" y="51" width="24" height="23"></rect>
        <rect id="Rectangle" fill="#7531FF" transform="translate(215.274870, 158.573184) rotate(23.000000) translate(-215.274870, -158.573184) " x="204.27487" y="115.073184" width="22" height="87"></rect>
        <g id="Group" transform="translate(125.000000, 40.000000)">
            <g id="Group-14">
                <path d="M229.567788,217 L6.43221194,217 C2.87948688,217 0,214.123143 0,210.573662 L0,74.4263379 C0,70.8773928 2.87948688,68 6.43221194,68 L229.567788,68 C233.120513,68 236,70.8773928 236,74.4263379 L236,210.573662 C236,214.123143 233.120513,217 229.567788,217 Z" id="Stroke-1" stroke="#002856" stroke-width="12"></path>
                <g id="Group-5" transform="translate(51.000000, 0.000000)">
                    <mask id="mask-2" fill="white">
                        <use xlink:href="#path-1"></use>
                    </mask>
                    <g id="Clip-4"></g>
                    <path d="M95.6339575,79.7610039 L91.1250711,69.0560431 L95.6339575,79.7610039 Z M42.3412835,69.0560431 L37.8168879,79.7610039 L42.3412835,69.0560431 Z M108.987877,174.018184 L93.0080967,135.854999 C97.4041407,133.767531 101.25469,131.30539 104.580602,128.752257 L121.421943,168.863745 L108.987877,174.018184 Z M72.540822,86.9654426 L72.8675839,86.2000379 L74.1666095,83.1223616 C77.5470711,82.0839804 80.6542505,80.3604817 83.3068513,78.0749726 L100.254617,118.438027 C100.195789,118.4862 100.142309,118.534372 100.082947,118.582544 C96.5372322,121.563876 92.7888293,124.015312 88.8580601,125.942205 L72.540822,86.9654426 Z M66.26817,131.139463 C62.1983531,131.122871 58.2568879,130.663093 54.4544703,129.784751 L66.7174007,100.758785 L78.7931516,129.603302 C74.7655839,130.604215 70.5893421,131.122871 66.26817,131.139463 L66.26817,131.139463 Z M44.3253861,126.262819 C40.3197451,124.368576 36.5012835,121.922492 32.8806974,118.935808 L50.1172542,78.1445548 C50.1707341,78.1820222 50.2242139,78.224842 50.2776938,78.2676619 C53.6790125,81.1258864 57.855789,83.1116567 62.241137,83.8610039 C62.2143971,83.9252337 62.1983531,84.0108734 62.1555692,84.0590457 L44.3253861,126.262819 Z M35.5493421,147.03633 L31.0302945,157.735939 L18.6924923,152.511383 L28.5434813,129.201866 C31.8913201,131.712179 35.7579136,134.120795 40.1486095,136.149385 L35.5493421,147.03633 Z M21.3985729,180.5268 L18.6015766,164.100038 L26.8642139,167.595208 L21.3985729,180.5268 Z M57.7327853,46.8646593 C57.845093,46.7790196 57.9627487,46.6987324 58.0804044,46.6130927 C63.0700747,43.0590457 69.920844,42.984111 74.9800381,46.4311084 C78.9001114,49.1019961 81.4831883,53.6087846 81.4831883,58.704346 C81.4831883,61.4555209 80.7291223,64.030064 79.4188659,66.2459909 C79.2530784,66.5189674 79.0819429,66.7972963 78.8947634,67.0649204 C76.8999648,69.9820222 73.8890491,72.1551292 70.3754227,73.0650509 C65.0595253,74.4406384 59.305093,72.6850248 55.6363751,68.6117872 C53.2725656,65.9783668 51.8339575,62.504607 51.8339575,58.704346 C51.8339575,53.8710561 54.1496352,49.5730144 57.7327853,46.8646593 L57.7327853,46.8646593 Z M59.5083165,17.6722311 C59.5083165,13.9254948 62.5566681,10.8745809 66.2949099,10.8745809 C68.1132249,10.8745809 69.8186974,11.5811084 71.0974007,12.8549987 C72.3809172,14.1449465 73.0921993,15.8577402 73.0921993,17.6722311 L73.0921993,33.9758864 C68.6635326,32.8251031 63.8990125,32.8893329 59.5083165,34.1685757 L59.5083165,17.6722311 Z M140.551686,192.676396 L129.422529,192.676396 L124.352639,179.236852 L130.48143,176.694424 C131.797034,176.148471 132.839357,175.099385 133.385386,173.782675 C133.925533,172.465965 133.920185,170.98868 133.369342,169.677322 L112.98817,121.114268 C117.956448,115.80996 120.502089,111.442336 120.764141,110.97667 C122.224141,108.412832 121.331027,105.158523 118.77469,103.691944 C116.223701,102.220012 112.956082,103.108523 111.480038,105.661657 C111.458646,105.699124 110.415789,107.4815 108.356815,110.077453 L95.6339575,79.7610039 L91.1250711,69.0560431 L90.5480234,67.6858081 C91.6015766,64.8864608 92.179159,61.8623094 92.179159,58.704346 C92.179159,51.2108734 88.9377451,44.4613956 83.78817,39.7833277 L83.78817,17.6722311 C83.78817,13.0048681 81.9698549,8.61048172 78.6648,5.29194386 C75.365093,1.98946345 70.9743971,0.169620104 66.2949099,0.169620104 C56.6578403,0.169620104 48.8123458,8.02170888 48.8123458,17.6722311 L48.8123458,40.4684452 C44.0847267,45.1036932 41.1379868,51.5641371 41.1379868,58.704346 C41.1379868,61.9318916 41.7476571,65.0202728 42.8439941,67.8624399 L42.3412835,69.0560431 L37.8168879,79.7610039 L24.7250198,110.757218 C22.2970344,107.797296 21.0776938,105.704477 21.0563018,105.677714 C19.5963018,103.108523 16.3286828,102.214659 13.7669978,103.675886 C11.1999648,105.137114 10.3068513,108.407479 11.7668513,110.97667 C12.0449465,111.463745 14.7670711,116.131108 20.0990125,121.70304 L8.8415033,148.347688 L7.44567912,147.753563 C4.72355458,146.602244 1.58428718,147.87667 0.43447033,150.601082 C-0.71534652,153.320142 0.557473993,156.462048 3.27959853,157.612832 L6.9055326,159.148993 L13.9060454,200.427322 C14.3017963,202.771709 16.2003311,204.575495 18.5587927,204.848471 C18.7673641,204.875234 18.9759355,204.885939 19.179159,204.885939 C21.1258256,204.885939 22.9120527,203.815443 23.8532982,202.108001 C23.922822,201.984894 23.9869978,201.856435 24.0458256,201.727975 C24.0672176,201.690508 24.0886095,201.65304 24.1046535,201.615573 L36.7152029,171.76479 L40.2555692,173.263484 C40.9401114,173.552518 41.6406974,173.68633 42.3359355,173.68633 C44.4216498,173.68633 46.4057524,172.460612 47.266778,170.415965 C48.4165949,167.691552 47.1437744,164.554463 44.4216498,163.398863 L40.8812835,161.899633 L50.2295619,139.777832 C54.9892689,141.030847 60.2089026,141.790899 65.904507,141.839072 C65.9526388,141.844424 66.0109319,141.844424 66.0649465,141.844424 L66.4713934,141.844424 C66.5243385,141.844424 66.5730051,141.844424 66.631833,141.839072 C72.5948366,141.790899 78.0337377,140.955913 82.9752762,139.59103 L101.179818,183.069228 C102.302895,185.750821 105.479599,187.056291 108.158939,185.948863 L114.464214,183.3315 L117.988536,192.676396 L75.5036059,192.676396 C72.5467048,192.676396 70.1556205,195.074842 70.1556205,198.028876 C70.1556205,200.989333 72.5467048,203.381356 75.5036059,203.381356 L125.678939,203.381356 C125.694983,203.381356 125.705144,203.387244 125.721723,203.387244 C125.732419,203.387244 125.743115,203.381356 125.753276,203.381356 L140.551686,203.381356 C143.503774,203.381356 145.899672,200.989333 145.899672,198.028876 C145.899672,195.074842 143.503774,192.676396 140.551686,192.676396 L140.551686,192.676396 Z" id="Fill-3" fill="#002856" mask="url(#mask-2)"></path>
                </g>
                <path d="M214.740178,199.174508 C214.039974,201.339824 212.039153,202.871523 209.767071,202.992737 C207.468525,203.1134 205.290172,201.719994 204.408024,199.604265 C203.426635,197.202032 204.259162,194.353511 206.436964,192.915477 C208.388715,191.626205 210.991051,191.70279 212.854588,193.119336 C214.680082,194.513293 215.445897,196.998172 214.740178,199.174508" id="Fill-10" fill="#002856"></path>
                <path d="M214.740178,199.174508 C214.039974,201.339824 212.039153,202.871523 209.767071,202.992737 C207.468525,203.1134 205.290172,201.719994 204.408024,199.604265 C203.426635,197.202032 204.259162,194.353511 206.436964,192.915477 C208.388715,191.626205 210.991051,191.70279 212.854588,193.119336 C214.680082,194.513293 215.445897,196.998172 214.740178,199.174508 Z" id="Stroke-12" stroke="#FFFFFF"></path>
            </g>
            <text id="stjude.cloud" font-family="StJudeSans-Regular, St Jude Sans" font-size="42" font-weight="normal" fill="#002856">
                <tspan x="302" y="103">stjude.cloud</tspan>
            </text>
            <text id="RFCS" font-family="StJudeSans-Bold, St Jude Sans" font-size="60" font-weight="bold" fill="#7531FF">
                <tspan x="302" y="167">RFCS</tspan>
            </text>
        </g>
        <circle id="Oval" fill="#FFFFFF" cx="242.5" cy="98.5" r="15.5"></circle>
    </g>
</svg>